<svg width="40" height="41" viewBox="0 0 40 41" fill="none" xmlns="http://www.w3.org/2000/svg">
<path d="M21.792 30.083L13.75 22C13.528 21.8053 13.3613 21.576 13.25 21.312C13.1387 21.0487 13.083 20.764 13.083 20.458C13.083 20.1807 13.1387 19.903 13.25 19.625C13.3613 19.347 13.528 19.111 13.75 18.917L21.833 10.833C22.2497 10.4163 22.7637 10.208 23.375 10.208C23.9863 10.208 24.514 10.4163 24.958 10.833C25.3747 11.2497 25.576 11.7707 25.562 12.396C25.5487 13.0207 25.3337 13.5413 24.917 13.958L18.417 20.458L24.958 27C25.3747 27.4167 25.583 27.9307 25.583 28.542C25.583 29.1527 25.3747 29.6663 24.958 30.083C24.514 30.4997 23.9793 30.708 23.354 30.708C22.7293 30.708 22.2087 30.4997 21.792 30.083Z" fill="#424242"/>
</svg>
