<svg width="223" height="224" viewBox="0 0 223 224" fill="none" xmlns="http://www.w3.org/2000/svg">
<path fill-rule="evenodd" clip-rule="evenodd" d="M110.65 12.072H33.333C27.44 12.072 21.787 14.413 17.62 18.581C13.452 22.748 11.111 28.401 11.111 34.294V111.611H110.65V12.072Z" fill="#424242"/>
<path fill-rule="evenodd" clip-rule="evenodd" d="M110.65 111.378H11.111V188.694C11.111 194.588 13.452 200.24 17.62 204.408C21.787 208.575 27.44 210.917 33.333 210.917H110.65V111.378Z" fill="#9E9E9E"/>
<path fill-rule="evenodd" clip-rule="evenodd" d="M210.189 111.378H110.65V210.917H187.967C193.86 210.917 199.513 208.575 203.68 204.408C207.848 200.24 210.189 194.588 210.189 188.694V111.378Z" fill="#424242"/>
<path fill-rule="evenodd" clip-rule="evenodd" d="M210.189 34.294C210.189 28.401 207.848 22.748 203.68 18.581C199.513 14.413 193.86 12.072 187.967 12.072H110.65V111.611H210.189V34.294Z" fill="#9E9E9E"/>
</svg>
