<svg width="40" height="41" viewBox="0 0 40 41" fill="none" xmlns="http://www.w3.org/2000/svg">
<path d="M27.958 25.667V12.542H14.833V8.125H27.958C29.1527 8.125 30.1873 8.56267 31.062 9.438C31.9373 10.3127 32.375 11.3473 32.375 12.542V25.667H27.958ZM30.167 39.167C29.5277 39.167 28.9997 38.9517 28.583 38.521C28.1663 38.0903 27.958 37.5693 27.958 36.958V32.833H12.042C10.8473 32.833 9.81267 32.4027 8.938 31.542C8.06267 30.6807 7.625 29.639 7.625 28.417V12.542H3.542C2.90267 12.542 2.38167 12.3267 1.979 11.896C1.57633 11.4653 1.375 10.9583 1.375 10.375C1.375 9.73633 1.57633 9.20167 1.979 8.771C2.38167 8.34033 2.90267 8.125 3.542 8.125H7.625V4.042C7.625 3.40267 7.84733 2.88167 8.292 2.479C8.736 2.07633 9.24967 1.875 9.833 1.875C10.4723 1.875 11.0003 2.07633 11.417 2.479C11.8337 2.88167 12.042 3.40267 12.042 4.042V28.417H36.458C37.0973 28.417 37.6253 28.639 38.042 29.083C38.4587 29.5277 38.667 30.0417 38.667 30.625C38.667 31.2637 38.4587 31.7913 38.042 32.208C37.6253 32.6247 37.0973 32.833 36.458 32.833H32.375V36.958C32.375 37.5693 32.1527 38.0903 31.708 38.521C31.264 38.9517 30.7503 39.167 30.167 39.167Z" fill="#424242"/>
</svg>
