<svg width="40" height="41" viewBox="0 0 40 41" fill="none" xmlns="http://www.w3.org/2000/svg">
<path d="M28 23C27.5833 22.5833 27.368 22.0763 27.354 21.479C27.34 20.8817 27.5553 20.361 28 19.917L30.417 17.5H21C20.3887 17.5 19.8747 17.2917 19.458 16.875C19.0413 16.4583 18.833 15.9307 18.833 15.292C18.833 14.6527 19.0413 14.1247 19.458 13.708C19.8747 13.2913 20.3887 13.083 21 13.083H30.417L28 10.667C27.5553 10.2223 27.34 9.70133 27.354 9.104C27.368 8.50667 27.5833 7.99967 28 7.583C28.4447 7.111 28.9723 6.875 29.583 6.875C30.1943 6.875 30.6943 7.09733 31.083 7.542L37.292 13.75C37.486 13.972 37.6457 14.215 37.771 14.479C37.8957 14.743 37.958 15.014 37.958 15.292C37.958 15.5693 37.8957 15.847 37.771 16.125C37.6457 16.403 37.486 16.639 37.292 16.833L31.083 23.042C30.6663 23.486 30.1593 23.708 29.562 23.708C28.9653 23.708 28.4447 23.472 28 23ZM8.91701 33.417L2.70801 27.208C2.51401 27.0413 2.36134 26.8193 2.25001 26.542C2.13867 26.264 2.08301 25.986 2.08301 25.708C2.08301 25.4307 2.13867 25.153 2.25001 24.875C2.36134 24.597 2.51401 24.347 2.70801 24.125L8.95801 17.917C9.37467 17.5003 9.87467 17.292 10.458 17.292C11.0413 17.292 11.5553 17.514 12 17.958C12.4167 18.3747 12.632 18.8887 12.646 19.5C12.66 20.1113 12.4447 20.6253 12 21.042L9.58301 23.458H19C19.6113 23.458 20.139 23.6733 20.583 24.104C21.0277 24.5347 21.25 25.0557 21.25 25.667C21.25 26.3337 21.0277 26.8683 20.583 27.271C20.139 27.6737 19.6113 27.875 19 27.875H9.58301L12 30.375C12.4447 30.7917 12.66 31.2987 12.646 31.896C12.632 32.4933 12.4167 33.0003 12 33.417C11.5553 33.861 11.0347 34.083 10.438 34.083C9.84067 34.083 9.33367 33.861 8.91701 33.417Z" fill="#424242"/>
</svg>
