<svg width="40" height="41" viewBox="0 0 40 41" fill="none" xmlns="http://www.w3.org/2000/svg">
<path d="M23 30.833V21.458C23 20.8193 23.2013 20.2917 23.604 19.875C24.0067 19.4583 24.5277 19.25 25.167 19.25C25.7777 19.25 26.3053 19.4583 26.75 19.875C27.1947 20.2917 27.417 20.8193 27.417 21.458V30.875L29.875 28.417C30.2917 28.0003 30.8057 27.7987 31.417 27.812C32.0277 27.826 32.5413 28.0413 32.958 28.458C33.3747 28.9027 33.583 29.4167 33.583 30C33.583 30.5833 33.361 31.111 32.917 31.583L26.75 37.75C26.5553 37.9447 26.3193 38.0973 26.042 38.208C25.764 38.3193 25.486 38.375 25.208 38.375C24.9307 38.375 24.646 38.3193 24.354 38.208C24.0627 38.0973 23.8337 37.9447 23.667 37.75L17.417 31.5C17.0277 31.0833 16.833 30.5763 16.833 29.979C16.833 29.3817 17.0413 28.861 17.458 28.417C17.8747 28.0277 18.3887 27.833 19 27.833C19.6113 27.833 20.139 28.0553 20.583 28.5L23 30.833ZM12.583 10.083L10.167 12.5C9.72233 12.9167 9.20133 13.125 8.60399 13.125C8.00666 13.125 7.49966 12.9027 7.08299 12.458C6.63899 12.0693 6.41699 11.5627 6.41699 10.938C6.41699 10.3127 6.63899 9.79167 7.08299 9.375L13.292 3.125C13.4587 2.95833 13.6807 2.81267 13.958 2.688C14.236 2.56267 14.514 2.5 14.792 2.5C15.0693 2.5 15.347 2.56267 15.625 2.688C15.903 2.81267 16.153 2.95833 16.375 3.125L22.583 9.375C22.9997 9.81967 23.208 10.3473 23.208 10.958C23.208 11.5693 22.986 12.0693 22.542 12.458C22.1253 12.9027 21.6113 13.125 21 13.125C20.3887 13.125 19.861 12.9167 19.417 12.5L17 10.042V19.5C17 20.1113 16.7847 20.632 16.354 21.062C15.9233 21.4927 15.3887 21.708 14.75 21.708C14.1387 21.708 13.6247 21.4927 13.208 21.062C12.7913 20.632 12.583 20.1113 12.583 19.5V10.083Z" fill="#424242"/>
</svg>
