<svg width="40" height="41" viewBox="0 0 40 41" fill="none" xmlns="http://www.w3.org/2000/svg">
<path d="M8.20799 36.708C6.98599 36.708 5.94433 36.2777 5.08299 35.417C4.22233 34.5557 3.79199 33.514 3.79199 32.292V8.708C3.79199 7.486 4.22233 6.43733 5.08299 5.562C5.94433 4.68733 6.98599 4.25 8.20799 4.25H31.792C33.014 4.25 34.0627 4.68733 34.938 5.562C35.8127 6.43733 36.25 7.486 36.25 8.708V32.292C36.25 33.514 35.8127 34.5557 34.938 35.417C34.0627 36.2777 33.014 36.708 31.792 36.708H8.20799ZM8.20799 32.292H31.792V8.708H8.20799V32.292ZM11.625 18.833H18.333V12.125H11.625V18.833ZM21.667 18.833H28.375V12.125H21.667V18.833ZM11.625 28.875H18.333V22.167H11.625V28.875ZM21.667 28.875H28.375V22.167H21.667V28.875Z" fill="#424242"/>
</svg>
