<svg width="40" height="41" viewBox="0 0 40 41" fill="none" xmlns="http://www.w3.org/2000/svg">
<path d="M30.917 32.792C30.2503 32.792 29.7153 32.5767 29.312 32.146C28.9093 31.7153 28.708 31.1807 28.708 30.542V10.417C28.708 9.80568 28.9163 9.28468 29.333 8.85401C29.7497 8.42334 30.2777 8.20801 30.917 8.20801C31.5277 8.20801 32.0483 8.42334 32.479 8.85401C32.9097 9.28468 33.125 9.80568 33.125 10.417V30.542C33.125 31.1807 32.9097 31.7153 32.479 32.146C32.0483 32.5767 31.5277 32.792 30.917 32.792ZM10.375 30.417C9.597 30.917 8.81933 30.9587 8.042 30.542C7.264 30.1253 6.875 29.4723 6.875 28.583V12.417C6.875 11.5277 7.27767 10.8747 8.083 10.458C8.889 10.0413 9.653 10.0693 10.375 10.542L22.208 18.667C22.8473 19.0837 23.167 19.6947 23.167 20.5C23.167 21.3053 22.8473 21.9163 22.208 22.333L10.375 30.417ZM11.292 24.417L17.042 20.5L11.292 16.583V24.417Z" fill="#424242"/>
</svg>
