<svg width="40" height="41" viewBox="0 0 40 41" fill="none" xmlns="http://www.w3.org/2000/svg">
<path d="M6.37499 31.833C5.76366 31.833 5.24266 31.6247 4.81199 31.208C4.38199 30.7913 4.16699 30.2637 4.16699 29.625C4.16699 29.0137 4.38199 28.4927 4.81199 28.062C5.24266 27.632 5.76366 27.417 6.37499 27.417H33.667C34.2503 27.417 34.7573 27.632 35.188 28.062C35.618 28.4927 35.833 29.0137 35.833 29.625C35.833 30.2637 35.618 30.7913 35.188 31.208C34.7573 31.6247 34.2503 31.833 33.667 31.833H6.37499ZM6.37499 22.708C5.76366 22.708 5.24266 22.4927 4.81199 22.062C4.38199 21.632 4.16699 21.1113 4.16699 20.5C4.16699 19.8613 4.38199 19.3337 4.81199 18.917C5.24266 18.5003 5.76366 18.292 6.37499 18.292H33.667C34.2503 18.292 34.7573 18.5003 35.188 18.917C35.618 19.3337 35.833 19.8613 35.833 20.5C35.833 21.1113 35.618 21.632 35.188 22.062C34.7573 22.4927 34.2503 22.708 33.667 22.708H6.37499ZM6.37499 13.583C5.76366 13.583 5.24266 13.361 4.81199 12.917C4.38199 12.4723 4.16699 11.9583 4.16699 11.375C4.16699 10.7363 4.38199 10.2017 4.81199 9.771C5.24266 9.34033 5.76366 9.125 6.37499 9.125H33.667C34.2503 9.125 34.7573 9.34033 35.188 9.771C35.618 10.2017 35.833 10.7223 35.833 11.333C35.833 11.9723 35.618 12.5073 35.188 12.938C34.7573 13.368 34.2503 13.583 33.667 13.583H6.37499Z" fill="#424242"/>
</svg>
