<svg width="40" height="41" viewBox="0 0 40 41" fill="none" xmlns="http://www.w3.org/2000/svg">
<path d="M5.99999 16.167C5.33333 16.167 4.79866 15.9587 4.39599 15.542C3.99333 15.1253 3.79199 14.5973 3.79199 13.958V6.458C3.79199 5.84733 4.00033 5.32667 4.41699 4.896C4.83366 4.46533 5.34733 4.25 5.95799 4.25H13.458C14.0973 4.25 14.6253 4.46533 15.042 4.896C15.4587 5.32667 15.667 5.84733 15.667 6.458C15.667 7.09733 15.4587 7.63233 15.042 8.063C14.6253 8.493 14.0973 8.708 13.458 8.708H11.333L14.75 12.125C15.1947 12.5697 15.41 13.0907 15.396 13.688C15.382 14.2847 15.1667 14.7913 14.75 15.208C14.3333 15.6527 13.8127 15.875 13.188 15.875C12.5627 15.875 12.0417 15.6527 11.625 15.208L8.20799 11.833V13.958C8.20799 14.5973 7.99266 15.1253 7.56199 15.542C7.13199 15.9587 6.61133 16.167 5.99999 16.167ZM25.292 15.208C24.8473 14.7913 24.625 14.2777 24.625 13.667C24.625 13.0557 24.8473 12.5277 25.292 12.083L28.667 8.708H26.542C25.9027 8.708 25.3747 8.493 24.958 8.063C24.5413 7.63233 24.333 7.09733 24.333 6.458C24.333 5.81933 24.5413 5.29167 24.958 4.875C25.3747 4.45833 25.9027 4.25 26.542 4.25H34.042C34.6527 4.25 35.1733 4.46533 35.604 4.896C36.0347 5.32667 36.25 5.84733 36.25 6.458V13.958C36.25 14.5973 36.0347 15.1253 35.604 15.542C35.1733 15.9587 34.6527 16.167 34.042 16.167C33.4027 16.167 32.868 15.9587 32.438 15.542C32.0073 15.1253 31.792 14.5973 31.792 13.958V11.833L28.375 15.25C27.9303 15.6947 27.4093 15.903 26.812 15.875C26.2153 15.847 25.7087 15.6247 25.292 15.208ZM26.542 36.708C25.9027 36.708 25.3747 36.4997 24.958 36.083C24.5413 35.6663 24.333 35.1387 24.333 34.5C24.333 33.8887 24.5413 33.368 24.958 32.938C25.3747 32.5073 25.9027 32.292 26.542 32.292H28.667L25.25 28.875C24.8053 28.4303 24.597 27.9027 24.625 27.292C24.653 26.6807 24.889 26.1667 25.333 25.75C25.7223 25.3333 26.2223 25.125 26.833 25.125C27.4443 25.125 27.9723 25.3333 28.417 25.75L31.792 29.167V27.042C31.792 26.4027 32.0073 25.8747 32.438 25.458C32.868 25.0413 33.4027 24.833 34.042 24.833C34.6807 24.833 35.2083 25.0413 35.625 25.458C36.0417 25.8747 36.25 26.4027 36.25 27.042V34.542C36.25 35.1527 36.0347 35.6663 35.604 36.083C35.1733 36.4997 34.6527 36.708 34.042 36.708H26.542ZM5.95799 36.708C5.34733 36.708 4.83366 36.4997 4.41699 36.083C4.00033 35.6663 3.79199 35.1527 3.79199 34.542V27.042C3.79199 26.4027 4.00033 25.8747 4.41699 25.458C4.83366 25.0413 5.36133 24.833 5.99999 24.833C6.61133 24.833 7.13199 25.0413 7.56199 25.458C7.99266 25.8747 8.20799 26.4027 8.20799 27.042V29.167L11.667 25.708C12.0837 25.2913 12.6043 25.09 13.229 25.104C13.8543 25.118 14.3753 25.3193 14.792 25.708C15.2087 26.1247 15.417 26.6457 15.417 27.271C15.417 27.8957 15.2087 28.4163 14.792 28.833L11.333 32.292H13.458C14.0973 32.292 14.6253 32.5073 15.042 32.938C15.4587 33.368 15.667 33.8887 15.667 34.5C15.667 35.1667 15.4587 35.7013 15.042 36.104C14.6253 36.5067 14.0973 36.708 13.458 36.708H5.95799Z" fill="#424242"/>
</svg>
