<svg width="40" height="41" viewBox="0 0 40 41" fill="none" xmlns="http://www.w3.org/2000/svg">
<path d="M30.167 38.375H9.83299C8.66633 38.375 7.63866 37.9443 6.74999 37.083C5.86133 36.2223 5.41699 35.1807 5.41699 33.958V7.04201C5.41699 5.81934 5.86133 4.77067 6.74999 3.89601C7.63866 3.02067 8.66633 2.58301 9.83299 2.58301H30.167C31.361 2.58301 32.4027 3.02067 33.292 3.89601C34.1807 4.77067 34.625 5.81934 34.625 7.04201V33.958C34.625 35.1807 34.1807 36.2223 33.292 37.083C32.4027 37.9443 31.361 38.375 30.167 38.375ZM9.83299 33.958H30.167V7.04201H9.83299V33.958Z" fill="#424242"/>
</svg>
