<svg width="40" height="41" viewBox="0 0 40 41" fill="none" xmlns="http://www.w3.org/2000/svg">
<path d="M19.167 26.042L24.792 22.333C25.1253 22.111 25.389 21.8473 25.583 21.542C25.7777 21.236 25.875 20.8887 25.875 20.5C25.875 20.1387 25.7777 19.7913 25.583 19.458C25.389 19.1247 25.1253 18.861 24.792 18.667L19.167 14.958C18.417 14.486 17.653 14.4513 16.875 14.854C16.097 15.2567 15.708 15.9027 15.708 16.792V24.208C15.708 25.0973 16.097 25.7503 16.875 26.167C17.653 26.5837 18.417 26.542 19.167 26.042ZM8.20799 36.708C6.98599 36.708 5.94433 36.2777 5.08299 35.417C4.22233 34.5557 3.79199 33.514 3.79199 32.292V8.708C3.79199 7.486 4.22233 6.43733 5.08299 5.562C5.94433 4.68733 6.98599 4.25 8.20799 4.25H31.792C33.014 4.25 34.0627 4.68733 34.938 5.562C35.8127 6.43733 36.25 7.486 36.25 8.708V32.292C36.25 33.514 35.8127 34.5557 34.938 35.417C34.0627 36.2777 33.014 36.708 31.792 36.708H8.20799ZM8.20799 32.292H31.792V8.708H8.20799V32.292Z" fill="#424242"/>
</svg>
