<svg width="40" height="41" viewBox="0 0 40 41" fill="none" xmlns="http://www.w3.org/2000/svg">
<path d="M20 26.417C21.5833 26.417 23.0277 26.042 24.333 25.292C25.639 24.542 26.653 23.5003 27.375 22.167C26.653 20.8337 25.632 19.785 24.312 19.021C22.9927 18.257 21.5553 17.875 20 17.875C18.4167 17.875 16.9723 18.257 15.667 19.021C14.361 19.785 13.347 20.8337 12.625 22.167C13.347 23.5003 14.3677 24.542 15.687 25.292C17.007 26.042 18.4447 26.417 20 26.417ZM20 28.708C17.75 28.708 15.736 28.097 13.958 26.875C12.1807 25.653 10.903 24.0837 10.125 22.167C10.903 20.2223 12.1807 18.639 13.958 17.417C15.736 16.1943 17.75 15.583 20 15.583C22.25 15.583 24.264 16.2013 26.042 17.438C27.8193 18.674 29.097 20.2503 29.875 22.167C29.097 24.0837 27.8193 25.653 26.042 26.875C24.264 28.097 22.25 28.708 20 28.708ZM20 24.417C19.3887 24.417 18.861 24.1947 18.417 23.75C17.9723 23.3053 17.75 22.7777 17.75 22.167C17.75 21.5557 17.9723 21.0277 18.417 20.583C18.861 20.139 19.3887 19.917 20 19.917C20.6113 19.917 21.139 20.139 21.583 20.583C22.0277 21.0277 22.25 21.5557 22.25 22.167C22.25 22.7777 22.0277 23.3053 21.583 23.75C21.139 24.1947 20.6113 24.417 20 24.417ZM8.292 36.625C7.042 36.625 5.99333 36.2013 5.146 35.354C4.29867 34.5067 3.875 33.458 3.875 32.208V8.792C3.875 7.542 4.29867 6.49333 5.146 5.646C5.99333 4.79867 7.042 4.375 8.292 4.375H31.708C32.958 4.375 34.0067 4.79867 34.854 5.646C35.7013 6.49333 36.125 7.542 36.125 8.792V32.208C36.125 33.458 35.7013 34.5067 34.854 35.354C34.0067 36.2013 32.958 36.625 31.708 36.625H8.292ZM7.792 32.708H32.208V11.625H7.792V32.708Z" fill="#424242"/>
</svg>
