<svg width="223" height="224" viewBox="0 0 223 224" fill="none" xmlns="http://www.w3.org/2000/svg">
<path fill-rule="evenodd" clip-rule="evenodd" d="M185.382 56.026C185.382 43.753 175.432 33.804 163.159 33.804C135.103 33.804 87.1189 33.804 59.0629 33.804C46.7899 33.804 36.8409 43.753 36.8409 56.026C36.8409 85.607 36.8409 137.616 36.8409 167.196C36.8409 179.469 46.7899 189.418 59.0629 189.418C87.1189 189.418 135.103 189.418 163.159 189.418C175.432 189.418 185.382 179.469 185.382 167.196C185.382 137.616 185.382 85.607 185.382 56.026Z" stroke="#424242" stroke-width="25" stroke-miterlimit="1.5" stroke-linecap="round" stroke-linejoin="round"/>
<path fill-rule="evenodd" clip-rule="evenodd" d="M40.967 160.83L78.691 107.78L105.511 145.799L136.457 84.791L185.382 159.356L166.828 182.407L53.336 189.418L40.967 160.83Z" fill="#424242"/>
</svg>
