<svg width="40" height="41" viewBox="0 0 40 41" fill="none" xmlns="http://www.w3.org/2000/svg">
<path d="M5.99999 15.25C5.36133 15.25 4.83366 15.0487 4.41699 14.646C4.00033 14.2433 3.79199 13.7087 3.79199 13.042V8.708C3.79199 7.486 4.22233 6.43733 5.08299 5.562C5.94433 4.68733 6.98599 4.25 8.20799 4.25H12.583C13.2223 4.25 13.7433 4.46533 14.146 4.896C14.5487 5.32667 14.75 5.84733 14.75 6.458C14.75 7.09733 14.5487 7.63233 14.146 8.063C13.7433 8.493 13.2223 8.708 12.583 8.708H8.20799V13.042C8.20799 13.7087 7.98599 14.2433 7.54199 14.646C7.09733 15.0487 6.58333 15.25 5.99999 15.25ZM8.20799 36.708C6.98599 36.708 5.94433 36.2777 5.08299 35.417C4.22233 34.5557 3.79199 33.514 3.79199 32.292V27.917C3.79199 27.2777 4.00033 26.7567 4.41699 26.354C4.83366 25.9513 5.34733 25.75 5.95799 25.75C6.59733 25.75 7.13199 25.9513 7.56199 26.354C7.99266 26.7567 8.20799 27.2777 8.20799 27.917V32.292H12.583C13.2223 32.292 13.7433 32.514 14.146 32.958C14.5487 33.4027 14.75 33.9167 14.75 34.5C14.75 35.1387 14.5487 35.6663 14.146 36.083C13.7433 36.4997 13.2223 36.708 12.583 36.708H8.20799ZM27.458 36.708C26.7913 36.708 26.2567 36.4997 25.854 36.083C25.4513 35.6663 25.25 35.1527 25.25 34.542C25.25 33.9027 25.4513 33.368 25.854 32.938C26.2567 32.5073 26.7913 32.292 27.458 32.292H31.792V27.917C31.792 27.2777 32.014 26.7567 32.458 26.354C32.9027 25.9513 33.4307 25.75 34.042 25.75C34.6807 25.75 35.2083 25.9513 35.625 26.354C36.0417 26.7567 36.25 27.2777 36.25 27.917V32.292C36.25 33.514 35.8127 34.5557 34.938 35.417C34.0627 36.2777 33.014 36.708 31.792 36.708H27.458ZM34.042 15.25C33.4027 15.25 32.868 15.0487 32.438 14.646C32.0073 14.2433 31.792 13.7087 31.792 13.042V8.708H27.458C26.7913 8.708 26.2567 8.486 25.854 8.042C25.4513 7.59733 25.25 7.06933 25.25 6.458C25.25 5.81933 25.4513 5.29167 25.854 4.875C26.2567 4.45833 26.7913 4.25 27.458 4.25H31.792C33.014 4.25 34.0627 4.68733 34.938 5.562C35.8127 6.43733 36.25 7.486 36.25 8.708V13.042C36.25 13.7087 36.0347 14.2433 35.604 14.646C35.1733 15.0487 34.6527 15.25 34.042 15.25Z" fill="#424242"/>
</svg>
