<svg width="40" height="41" viewBox="0 0 40 41" fill="none" xmlns="http://www.w3.org/2000/svg">
<path d="M6 36.75C5.36133 36.75 4.82667 36.5347 4.396 36.104C3.96533 35.6734 3.75 35.1387 3.75 34.5V28.542C3.75 28.292 3.80567 28.035 3.917 27.771C4.02767 27.507 4.19433 27.25 4.417 27L18.708 12.708L17.708 11.667C17.208 11.1944 16.972 10.611 17 9.91702C17.028 9.22236 17.292 8.62502 17.792 8.12502C18.264 7.65302 18.861 7.42402 19.583 7.43802C20.3057 7.45136 20.9307 7.69436 21.458 8.16702L23.25 9.95802L28 5.08302C28.6113 4.52769 29.264 4.25702 29.958 4.27102C30.6527 4.28502 31.2917 4.58369 31.875 5.16702L35.333 8.66702C35.9163 9.22236 36.222 9.86102 36.25 10.583C36.278 11.3057 36.0003 11.9447 35.417 12.5L30.542 17.292L32.375 19.167C32.847 19.667 33.083 20.2574 33.083 20.938C33.083 21.618 32.847 22.208 32.375 22.708C31.875 23.208 31.2777 23.458 30.583 23.458C29.889 23.458 29.3057 23.208 28.833 22.708L27.792 21.75L13.5 36.083C13.25 36.3057 12.993 36.4724 12.729 36.583C12.465 36.6944 12.208 36.75 11.958 36.75H6ZM8.167 32.333H11.083L25.167 18.25L22.25 15.333L8.167 29.417V32.333ZM27.417 14.917L31.833 10.583L30 8.75002L25.583 13.083L27.417 14.917Z" fill="#424242"/>
</svg>
