<svg width="40" height="41" viewBox="0 0 40 41" fill="none" xmlns="http://www.w3.org/2000/svg">
<path d="M10.75 36.708C9.55534 36.708 8.51367 36.2777 7.62501 35.417C6.73634 34.5557 6.29201 33.514 6.29201 32.292V10H6.00001C5.38867 10 4.87467 9.79167 4.45801 9.375C4.04134 8.95833 3.83301 8.44433 3.83301 7.833C3.83301 7.19433 4.04134 6.65967 4.45801 6.229C4.87467 5.79833 5.38867 5.583 6.00001 5.583H13.917C13.917 4.97233 14.1253 4.45167 14.542 4.021C14.9587 3.59033 15.4863 3.375 16.125 3.375H23.875C24.5137 3.375 25.0483 3.59033 25.479 4.021C25.9097 4.45167 26.125 4.97233 26.125 5.583H34C34.6387 5.583 35.1663 5.80533 35.583 6.25C35.9997 6.69467 36.208 7.20867 36.208 7.792C36.208 8.43067 35.9997 8.95833 35.583 9.375C35.1663 9.79167 34.6387 10 34 10H33.667V32.292C33.667 33.514 33.2363 34.5557 32.375 35.417C31.5137 36.2777 30.472 36.708 29.25 36.708H10.75ZM10.75 10V32.292H29.25V10H10.75ZM14.542 27.417C14.542 27.889 14.7223 28.2987 15.083 28.646C15.4443 28.9933 15.861 29.167 16.333 29.167C16.8057 29.167 17.2293 28.9933 17.604 28.646C17.9793 28.2987 18.167 27.889 18.167 27.417V14.917C18.167 14.4443 17.9793 14.0207 17.604 13.646C17.2293 13.2707 16.8057 13.083 16.333 13.083C15.861 13.083 15.4443 13.2707 15.083 13.646C14.7223 14.0207 14.542 14.4443 14.542 14.917V27.417ZM21.875 27.417C21.875 27.889 22.0627 28.2987 22.438 28.646C22.8127 28.9933 23.236 29.167 23.708 29.167C24.1807 29.167 24.5973 28.9933 24.958 28.646C25.3193 28.2987 25.5 27.889 25.5 27.417V14.917C25.5 14.4443 25.3193 14.0207 24.958 13.646C24.5973 13.2707 24.167 13.083 23.667 13.083C23.1943 13.083 22.7777 13.2707 22.417 13.646C22.0557 14.0207 21.875 14.4443 21.875 14.917V27.417Z" fill="#424242"/>
</svg>
