<svg width="40" height="41" viewBox="0 0 40 41" fill="none" xmlns="http://www.w3.org/2000/svg">
<path d="M8.08299 32.792H9.54199L26.25 16L24.792 14.5L8.08299 31.292V32.792ZM33 14.042L26.75 7.83298L27.75 6.83298C28.6113 5.94431 29.653 5.49298 30.875 5.47898C32.097 5.46498 33.1387 5.87465 34 6.70798L34.833 7.58298C35.5557 8.27765 35.882 9.07631 35.812 9.97898C35.7427 10.8817 35.3887 11.6387 34.75 12.25L33 14.042ZM31.042 15.958L10.875 36.125H4.66699V29.917L24.833 9.79198L31.042 15.958ZM25.583 15.292L24.792 14.5L26.25 16L25.583 15.292Z" fill="#424242"/>
</svg>
