<svg width="40" height="41" viewBox="0 0 40 41" fill="none" xmlns="http://www.w3.org/2000/svg">
<path d="M6.41701 36.292C5.75034 36.292 5.21534 36.0907 4.81201 35.688C4.40934 35.2847 4.20801 34.7497 4.20801 34.083V24.125C4.20801 23.5137 4.42334 22.986 4.85401 22.542C5.28467 22.0973 5.79167 21.875 6.37501 21.875C6.98634 21.875 7.51401 22.0973 7.95801 22.542C8.40267 22.986 8.62501 23.5137 8.62501 24.125V28.75L28.292 9.08299H23.625C23.0137 9.08299 22.4927 8.86799 22.062 8.43799C21.632 8.00733 21.417 7.48633 21.417 6.87499C21.417 6.29166 21.632 5.77766 22.062 5.33299C22.4927 4.88899 23.0137 4.66699 23.625 4.66699H33.625C34.2637 4.66699 34.7913 4.87533 35.208 5.29199C35.6247 5.70866 35.833 6.23633 35.833 6.87499V16.875C35.833 17.4863 35.611 18.0073 35.167 18.438C34.7223 18.868 34.2083 19.083 33.625 19.083C33.0137 19.083 32.4927 18.868 32.062 18.438C31.632 18.0073 31.417 17.4863 31.417 16.875V12.208L11.75 31.875H16.375C16.9863 31.875 17.514 32.0973 17.958 32.542C18.4027 32.986 18.625 33.5137 18.625 34.125C18.625 34.7083 18.4027 35.2153 17.958 35.646C17.514 36.0767 16.9863 36.292 16.375 36.292H6.41701Z" fill="#424242"/>
</svg>
