<svg width="40" height="41" viewBox="0 0 40 41" fill="none" xmlns="http://www.w3.org/2000/svg">
<path d="M9.125 32.792C8.48633 32.792 7.95167 32.5767 7.521 32.146C7.09033 31.7153 6.875 31.1807 6.875 30.542V10.417C6.875 9.80568 7.09033 9.28468 7.521 8.85401C7.95167 8.42334 8.48633 8.20801 9.125 8.20801C9.76367 8.20801 10.2847 8.42334 10.688 8.85401C11.0907 9.28468 11.292 9.80568 11.292 10.417V30.542C11.292 31.1807 11.0907 31.7153 10.688 32.146C10.2847 32.5767 9.76367 32.792 9.125 32.792ZM29.625 30.417L17.833 22.333C17.1663 21.9163 16.833 21.3053 16.833 20.5C16.833 19.6947 17.1663 19.0837 17.833 18.667L29.625 10.542C30.347 10.0693 31.111 10.0413 31.917 10.458C32.7223 10.8747 33.125 11.5277 33.125 12.417V28.583C33.125 29.4723 32.736 30.1253 31.958 30.542C31.1807 30.9587 30.403 30.917 29.625 30.417ZM28.708 24.417V16.583L22.958 20.5L28.708 24.417Z" fill="#424242"/>
</svg>
