<svg width="40" height="41" viewBox="0 0 40 41" fill="none" xmlns="http://www.w3.org/2000/svg">
<path d="M6.208 33C5.56933 33 5.04167 32.7847 4.625 32.354C4.20833 31.9233 4 31.4027 4 30.792V25.125C4 22.625 4.861 20.5207 6.583 18.812C8.30567 17.104 10.403 16.25 12.875 16.25H27.583L23.667 12.25C23.2223 11.8333 23.007 11.3333 23.021 10.75C23.035 10.1667 23.264 9.65267 23.708 9.20801C24.0973 8.79134 24.5973 8.58301 25.208 8.58301C25.8193 8.58301 26.3333 8.79134 26.75 9.20801L34.458 16.917C34.6527 17.111 34.8127 17.347 34.938 17.625C35.0627 17.903 35.125 18.1807 35.125 18.458C35.125 18.736 35.0627 19.014 34.938 19.292C34.8127 19.5693 34.6527 19.7913 34.458 19.958L26.708 27.708C26.2913 28.1527 25.7847 28.368 25.188 28.354C24.5907 28.34 24.0837 28.111 23.667 27.667C23.2503 27.2223 23.042 26.7013 23.042 26.104C23.042 25.5067 23.264 24.986 23.708 24.542L27.583 20.667H12.875C11.625 20.667 10.5763 21.0973 9.729 21.958C8.88167 22.8193 8.458 23.875 8.458 25.125V30.792C8.458 31.4027 8.236 31.9233 7.792 32.354C7.34733 32.7847 6.81933 33 6.208 33Z" fill="#424242"/>
</svg>
