<svg width="40" height="41" viewBox="0 0 40 41" fill="none" xmlns="http://www.w3.org/2000/svg">
<path d="M6.45803 20.708C5.70803 20.708 5.11103 20.4443 4.66703 19.917C4.22237 19.389 4.09737 18.7777 4.29203 18.083C4.48603 17.4443 4.70137 16.8263 4.93803 16.229C5.17403 15.6317 5.4587 15.0277 5.79203 14.417C6.12537 13.8057 6.62537 13.4723 7.29203 13.417C7.9587 13.361 8.5697 13.583 9.12503 14.083C9.48637 14.4163 9.71537 14.854 9.81203 15.396C9.90937 15.9373 9.83303 16.4443 9.58303 16.917C9.38903 17.1943 9.22237 17.5277 9.08303 17.917C8.94437 18.3057 8.84737 18.6527 8.79203 18.958C8.56937 19.486 8.2497 19.9097 7.83303 20.229C7.41637 20.5483 6.95803 20.708 6.45803 20.708ZM15.667 38.292C15.0003 38.1253 14.3683 37.924 13.771 37.688C13.1737 37.4513 12.611 37.1663 12.083 36.833C11.4163 36.4997 11.0483 35.986 10.979 35.292C10.9097 34.5973 11.1667 33.9583 11.75 33.375C12.0833 33.0697 12.507 32.882 13.021 32.812C13.535 32.7427 14.028 32.8193 14.5 33.042C14.75 33.264 15.0557 33.4307 15.417 33.542C15.7777 33.6527 16.1387 33.7777 16.5 33.917C16.972 34.0557 17.3747 34.3333 17.708 34.75C18.0413 35.1667 18.208 35.625 18.208 36.125C18.208 36.903 17.9443 37.5003 17.417 37.917C16.889 38.3337 16.3057 38.4587 15.667 38.292ZM5.83303 30.583C5.47237 30.0277 5.1807 29.4443 4.95803 28.833C4.73603 28.2223 4.5277 27.5697 4.33303 26.875C4.13903 26.2083 4.25737 25.611 4.68803 25.083C5.11803 24.5557 5.72203 24.292 6.50003 24.292C6.9167 24.292 7.34737 24.4517 7.79203 24.771C8.23603 25.0903 8.55537 25.5 8.75003 26C8.80537 26.3613 8.8957 26.7153 9.02103 27.062C9.1457 27.4093 9.30537 27.7497 9.50003 28.083C9.75003 28.5277 9.83337 29.0277 9.75003 29.583C9.6667 30.139 9.45837 30.5973 9.12503 30.958C8.5697 31.486 7.96537 31.7153 7.31203 31.646C6.65937 31.5767 6.16637 31.2223 5.83303 30.583ZM24.375 38.208C23.6803 38.4027 23.076 38.2987 22.562 37.896C22.0487 37.4933 21.792 36.903 21.792 36.125C21.792 35.7083 21.9517 35.2777 22.271 34.833C22.5903 34.389 23.014 34.0697 23.542 33.875C25.9587 33.0417 27.9377 31.611 29.479 29.583C31.021 27.5557 31.792 25.1947 31.792 22.5C31.792 19.3887 30.778 16.722 28.75 14.5C26.722 12.278 24.1247 11.028 20.958 10.75H20.542L21.625 11.792C21.7917 12.1807 21.861 12.632 21.833 13.146C21.8057 13.66 21.5837 14.1113 21.167 14.5C20.7223 14.9447 20.1943 15.16 19.583 15.146C18.9723 15.132 18.4447 14.9167 18 14.5L13.542 10C13.3193 9.80533 13.1527 9.57633 13.042 9.313C12.9307 9.049 12.875 8.778 12.875 8.5C12.875 8.19467 12.9307 7.91 13.042 7.646C13.1527 7.382 13.3193 7.139 13.542 6.917L18 2.417C18.4447 1.97233 18.9653 1.75 19.562 1.75C20.1593 1.75 20.6803 1.97233 21.125 2.417C21.5417 2.83367 21.7777 3.31267 21.833 3.854C21.889 4.396 21.778 4.84733 21.5 5.208L20.375 6.292H20.875C25.2083 6.514 28.854 8.17367 31.812 11.271C34.7707 14.3683 36.25 18.1113 36.25 22.5C36.25 26.222 35.132 29.5137 32.896 32.375C30.66 35.2363 27.8197 37.1807 24.375 38.208Z" fill="#424242"/>
</svg>
