<svg width="40" height="41" viewBox="0 0 40 41" fill="none" xmlns="http://www.w3.org/2000/svg">
<path d="M14.125 30.083C13.6803 29.611 13.458 29.0764 13.458 28.479C13.458 27.8817 13.6803 27.3747 14.125 26.958L20.583 20.458L14.083 13.958C13.639 13.5414 13.424 13.0207 13.438 12.396C13.4513 11.7707 13.6803 11.2497 14.125 10.833C14.5417 10.389 15.0487 10.174 15.646 10.188C16.2433 10.2013 16.7503 10.4164 17.167 10.833L25.292 18.917C25.486 19.111 25.6457 19.347 25.771 19.625C25.8957 19.903 25.958 20.1807 25.958 20.458C25.958 20.764 25.8957 21.0487 25.771 21.312C25.6457 21.576 25.486 21.8054 25.292 22L17.208 30.083C16.7913 30.4997 16.2777 30.7014 15.667 30.688C15.0557 30.674 14.5417 30.4724 14.125 30.083Z" fill="#424242"/>
</svg>
