<svg width="40" height="41" viewBox="0 0 40 41" fill="none" xmlns="http://www.w3.org/2000/svg">
<path d="M20 26.417C19.3887 26.417 18.868 26.1947 18.438 25.75C18.0073 25.3053 17.792 24.7913 17.792 24.208V12.292L14.792 15.292C14.3753 15.6807 13.8683 15.882 13.271 15.896C12.6737 15.91 12.1667 15.6947 11.75 15.25C11.3053 14.8333 11.083 14.3193 11.083 13.708C11.083 13.0973 11.3053 12.5557 11.75 12.083L18.458 5.375C18.6527 5.20833 18.889 5.06267 19.167 4.938C19.4443 4.81267 19.722 4.75 20 4.75C20.278 4.75 20.5557 4.81267 20.833 4.938C21.111 5.06267 21.3473 5.20833 21.542 5.375L28.292 12.167C28.736 12.5837 28.9513 13.0973 28.938 13.708C28.924 14.3193 28.7087 14.8333 28.292 15.25C27.8753 15.6667 27.3683 15.875 26.771 15.875C26.1737 15.875 25.6527 15.6527 25.208 15.208L22.208 12.292V24.208C22.208 24.7913 21.9997 25.3053 21.583 25.75C21.1663 26.1947 20.6387 26.417 20 26.417ZM8.70799 36.125C7.54133 36.125 6.51366 35.6943 5.62499 34.833C4.73633 33.9723 4.29199 32.917 4.29199 31.667V26.125C4.29199 25.5417 4.51399 25.0277 4.95799 24.583C5.40266 24.139 5.93066 23.917 6.54199 23.917C7.18066 23.917 7.70133 24.139 8.10399 24.583C8.50666 25.0277 8.70799 25.5417 8.70799 26.125V31.667H31.208V26.125C31.208 25.5417 31.4163 25.0277 31.833 24.583C32.2497 24.139 32.7777 23.917 33.417 23.917C34.0557 23.917 34.5833 24.139 35 24.583C35.4167 25.0277 35.625 25.5417 35.625 26.125V31.667C35.625 32.917 35.1807 33.9723 34.292 34.833C33.4027 35.6943 32.3747 36.125 31.208 36.125H8.70799Z" fill="#424242"/>
</svg>
