<svg width="40" height="41" viewBox="0 0 40 41" fill="none" xmlns="http://www.w3.org/2000/svg">
<path d="M26.792 12.375V8.667H13.208V12.375H8.79199V4.25H31.208V12.375H26.792ZM6.45799 16.833C6.45799 16.833 6.59699 16.833 6.87499 16.833C7.15299 16.833 7.45866 16.833 7.79199 16.833H32.25C32.6113 16.833 32.917 16.833 33.167 16.833C33.417 16.833 33.542 16.833 33.542 16.833H31.208H8.79199H6.45799ZM29.708 22C30.264 22 30.7293 21.8193 31.104 21.458C31.4793 21.0973 31.667 20.639 31.667 20.083C31.667 19.5277 31.4863 19.0557 31.125 18.667C30.7637 18.2777 30.2913 18.083 29.708 18.083C29.1247 18.083 28.6527 18.2707 28.292 18.646C27.9307 19.0207 27.75 19.4997 27.75 20.083C27.75 20.639 27.9307 21.0973 28.292 21.458C28.6527 21.8193 29.1247 22 29.708 22ZM26.792 33.167V28.417H13.208V33.167H26.792ZM31.208 37.333H8.79199V29.458H2.04199V18.25C2.04199 16.6387 2.59732 15.2567 3.70799 14.104C4.81932 12.9513 6.18066 12.375 7.79199 12.375H32.208C33.8473 12.375 35.2153 12.9513 36.312 14.104C37.4093 15.2567 37.958 16.6387 37.958 18.25V29.458H31.208V37.333ZM33.542 25.042V18.25C33.542 17.8887 33.417 17.5623 33.167 17.271C32.917 16.979 32.6113 16.833 32.25 16.833H7.79199C7.45866 16.833 7.15299 16.972 6.87499 17.25C6.59699 17.528 6.45799 17.8473 6.45799 18.208V25.042H8.79199V23.958H31.208V25.042H33.542Z" fill="#424242"/>
</svg>
