<svg width="40" height="41" viewBox="0 0 40 41" fill="none" xmlns="http://www.w3.org/2000/svg">
<path d="M19.875 35.083C15.8197 35.083 12.3753 33.6663 9.54199 30.833C6.70866 27.9997 5.29199 24.5553 5.29199 20.5C5.29199 16.472 6.70866 13.0347 9.54199 10.188C12.3753 7.34066 15.8337 5.91699 19.917 5.91699C22.2777 5.91699 24.4303 6.39599 26.375 7.35399C28.3197 8.31266 29.9863 9.68066 31.375 11.458V7.58299C31.375 7.11099 31.5277 6.71533 31.833 6.39599C32.139 6.07666 32.542 5.91699 33.042 5.91699C33.514 5.91699 33.9167 6.07666 34.25 6.39599C34.5833 6.71533 34.75 7.11099 34.75 7.58299V16.458C34.75 17.0973 34.5347 17.6253 34.104 18.042C33.6733 18.4587 33.1387 18.667 32.5 18.667H23.625C23.153 18.667 22.7573 18.514 22.438 18.208C22.118 17.9027 21.958 17.514 21.958 17.042C21.958 16.514 22.118 16.0973 22.438 15.792C22.7573 15.486 23.153 15.333 23.625 15.333H28.792C27.764 13.8057 26.507 12.5907 25.021 11.688C23.535 10.7847 21.8197 10.333 19.875 10.333C17.0417 10.333 14.639 11.3193 12.667 13.292C10.6943 15.264 9.70799 17.6667 9.70799 20.5C9.70799 23.3333 10.6943 25.736 12.667 27.708C14.639 29.6807 17.0417 30.667 19.875 30.667C21.7083 30.667 23.4373 30.1807 25.062 29.208C26.6873 28.236 27.9443 26.9167 28.833 25.25C29.0277 24.9167 29.3333 24.632 29.75 24.396C30.1667 24.16 30.5693 24.042 30.958 24.042C31.8473 24.042 32.5073 24.3473 32.938 24.958C33.368 25.5693 33.3747 26.236 32.958 26.958C31.736 29.4027 29.9513 31.368 27.604 32.854C25.2567 34.34 22.6803 35.083 19.875 35.083Z" fill="#424242"/>
</svg>
