<svg width="40" height="41" viewBox="0 0 40 41" fill="none" xmlns="http://www.w3.org/2000/svg">
<path d="M33.667 20.708C33.1943 20.708 32.729 20.5347 32.271 20.188C31.8123 19.8407 31.5137 19.417 31.375 18.917C31.2637 18.5557 31.1387 18.2154 31 17.896C30.8613 17.5767 30.6947 17.2504 30.5 16.917C30.278 16.4444 30.2017 15.9374 30.271 15.396C30.3403 14.854 30.5693 14.4027 30.958 14.042C31.514 13.5694 32.132 13.354 32.812 13.396C33.4927 13.4374 33.9997 13.7637 34.333 14.375C34.639 14.9864 34.917 15.5907 35.167 16.188C35.417 16.7847 35.639 17.4304 35.833 18.125C35.9997 18.7917 35.868 19.389 35.438 19.917C35.0073 20.4444 34.417 20.708 33.667 20.708ZM21.875 36.167C21.875 35.7224 22.0417 35.2777 22.375 34.833C22.7083 34.389 23.139 34.0557 23.667 33.833C24.0003 33.8057 24.3197 33.7364 24.625 33.625C24.9303 33.5137 25.236 33.3194 25.542 33.042C26.042 32.8194 26.5627 32.7427 27.104 32.812C27.646 32.882 28.0837 33.0974 28.417 33.458C28.9443 34.014 29.1803 34.632 29.125 35.312C29.0697 35.9927 28.7363 36.486 28.125 36.792C27.5417 37.1254 26.9443 37.424 26.333 37.688C25.7223 37.9514 25.0837 38.1664 24.417 38.333C23.7503 38.4997 23.16 38.368 22.646 37.938C22.132 37.5074 21.875 36.917 21.875 36.167ZM31 30.917C30.6387 30.611 30.4233 30.1664 30.354 29.583C30.2847 28.9997 30.375 28.4444 30.625 27.917C30.8197 27.639 30.9653 27.3474 31.062 27.042C31.1593 26.736 31.2637 26.4027 31.375 26.042C31.5137 25.5694 31.7983 25.1594 32.229 24.812C32.6597 24.4654 33.139 24.292 33.667 24.292C34.389 24.292 34.9723 24.542 35.417 25.042C35.861 25.542 35.972 26.1254 35.75 26.792C35.5553 27.486 35.34 28.1527 35.104 28.792C34.868 29.4307 34.5973 30.014 34.292 30.542C33.986 31.1807 33.4927 31.5417 32.812 31.625C32.132 31.7084 31.528 31.4724 31 30.917ZM15.708 38.208C12.208 37.264 9.361 35.3474 7.167 32.458C4.97233 29.5694 3.875 26.25 3.875 22.5C3.875 18.1114 5.34733 14.3684 8.292 11.271C11.236 8.17369 14.8747 6.51403 19.208 6.29203H19.708L18.625 5.20803C18.403 4.79136 18.292 4.32636 18.292 3.81303C18.292 3.29903 18.514 2.83369 18.958 2.41703C19.3747 1.97236 19.8887 1.75703 20.5 1.77103C21.1113 1.78503 21.639 2.00036 22.083 2.41703L26.583 6.91703C26.7777 7.13903 26.9373 7.38203 27.062 7.64603C27.1873 7.91003 27.25 8.19469 27.25 8.50003C27.25 8.77803 27.1873 9.04903 27.062 9.31303C26.9373 9.57636 26.7777 9.80536 26.583 10L22.083 14.5C21.639 14.9447 21.1043 15.167 20.479 15.167C19.8543 15.167 19.3473 14.9447 18.958 14.5C18.514 14.1114 18.271 13.66 18.229 13.146C18.1877 12.632 18.278 12.1807 18.5 11.792L19.583 10.75H19.125C15.9583 11.028 13.361 12.278 11.333 14.5C9.30567 16.722 8.292 19.3887 8.292 22.5C8.292 25.1947 9.04867 27.5627 10.562 29.604C12.076 31.646 14.0693 33.042 16.542 33.792C17.014 33.986 17.4237 34.2984 17.771 34.729C18.1183 35.1597 18.292 35.639 18.292 36.167C18.292 36.9444 18.028 37.5347 17.5 37.938C16.972 38.3407 16.3747 38.4307 15.708 38.208Z" fill="#424242"/>
</svg>
