<svg width="40" height="41" viewBox="0 0 40 41" fill="none" xmlns="http://www.w3.org/2000/svg">
<path d="M8.20799 36.708C6.98599 36.708 5.94433 36.2777 5.08299 35.417C4.22233 34.5557 3.79199 33.514 3.79199 32.292V8.708C3.79199 7.486 4.22233 6.43733 5.08299 5.562C5.94433 4.68733 6.98599 4.25 8.20799 4.25H27.083C27.6943 4.25 28.2777 4.368 28.833 4.604C29.389 4.84 29.8613 5.16633 30.25 5.583L34.917 10.25C35.3337 10.6387 35.66 11.111 35.896 11.667C36.132 12.2223 36.25 12.8057 36.25 13.417V32.292C36.25 33.514 35.8127 34.5557 34.938 35.417C34.0627 36.2777 33.014 36.708 31.792 36.708H8.20799ZM31.792 13.5L27 8.708H8.20799V32.292H31.792V13.5ZM20 29.958C21.25 29.958 22.3263 29.5137 23.229 28.625C24.1317 27.7363 24.583 26.667 24.583 25.417C24.583 24.139 24.1387 23.0557 23.25 22.167C22.3613 21.2777 21.278 20.833 20 20.833C18.75 20.833 17.6737 21.2707 16.771 22.146C15.8683 23.0207 15.417 24.097 15.417 25.375C15.417 26.653 15.8613 27.7363 16.75 28.625C17.6387 29.5137 18.722 29.958 20 29.958ZM12.375 16.917H23C23.6387 16.917 24.1663 16.7087 24.583 16.292C24.9997 15.8753 25.208 15.3613 25.208 14.75V12.875C25.208 12.2637 24.9997 11.7497 24.583 11.333C24.1663 10.9163 23.6387 10.708 23 10.708H12.375C11.7637 10.708 11.2497 10.9163 10.833 11.333C10.4163 11.7497 10.208 12.2637 10.208 12.875V14.75C10.208 15.3613 10.4163 15.8753 10.833 16.292C11.2497 16.7087 11.7637 16.917 12.375 16.917ZM8.20799 13.5V32.292V8.708V13.5Z" fill="#424242"/>
</svg>
