<svg width="40" height="41" viewBox="0 0 40 41" fill="none" xmlns="http://www.w3.org/2000/svg">
<path d="M6.542 35.083C5.31933 35.083 4.27767 34.6387 3.417 33.75C2.55567 32.8613 2.125 31.8337 2.125 30.667V10.333C2.125 9.139 2.55567 8.09733 3.417 7.208C4.27767 6.31933 5.31933 5.875 6.542 5.875H33.458C34.6807 5.875 35.7293 6.31933 36.604 7.208C37.4793 8.09733 37.917 9.139 37.917 10.333V30.667C37.917 31.8337 37.4793 32.8613 36.604 33.75C35.7293 34.6387 34.6807 35.083 33.458 35.083H6.542ZM6.542 30.667H33.458V10.333H6.542V30.667Z" fill="#424242"/>
</svg>
