<svg width="40" height="41" viewBox="0 0 40 41" fill="none" xmlns="http://www.w3.org/2000/svg">
<path d="M20 26.917C22.028 26.917 23.7433 26.2087 25.146 24.792C26.5487 23.3753 27.25 21.667 27.25 19.667C27.25 17.639 26.5417 15.9237 25.125 14.521C23.7083 13.1183 22 12.417 20 12.417C17.972 12.417 16.2567 13.1253 14.854 14.542C13.4513 15.9587 12.75 17.667 12.75 19.667C12.75 21.6943 13.4583 23.4093 14.875 24.812C16.2917 26.2153 18 26.917 20 26.917ZM20 23.542C18.9167 23.542 18 23.16 17.25 22.396C16.5 21.632 16.125 20.7223 16.125 19.667C16.125 18.5837 16.507 17.667 17.271 16.917C18.035 16.167 18.9447 15.792 20 15.792C21.0833 15.792 22 16.174 22.75 16.938C23.5 17.7013 23.875 18.611 23.875 19.667C23.875 20.7503 23.493 21.667 22.729 22.417C21.965 23.167 21.0553 23.542 20 23.542ZM20 33.333C15.972 33.333 12.2983 32.229 8.97899 30.021C5.65966 27.8123 3.09732 24.9027 1.29199 21.292C1.15266 21.0973 1.05532 20.854 0.999992 20.562C0.944658 20.2707 0.916992 19.9723 0.916992 19.667C0.916992 19.389 0.944658 19.0973 0.999992 18.792C1.05532 18.486 1.15266 18.208 1.29199 17.958C3.09732 14.4027 5.65966 11.5207 8.97899 9.312C12.2983 7.104 15.972 6 20 6C24.028 6 27.7017 7.104 31.021 9.312C34.3403 11.5207 36.9027 14.4027 38.708 17.958C38.8473 18.208 38.9447 18.479 39 18.771C39.0553 19.0623 39.083 19.361 39.083 19.667C39.083 19.9443 39.0553 20.236 39 20.542C38.9447 20.8473 38.8473 21.0973 38.708 21.292C36.9027 24.9027 34.3403 27.8123 31.021 30.021C27.7017 32.229 24.028 33.333 20 33.333ZM20 29.417C23.3053 29.417 26.3123 28.535 29.021 26.771C31.729 25.007 33.8193 22.639 35.292 19.667C33.8193 16.6943 31.729 14.3263 29.021 12.563C26.3123 10.799 23.3053 9.917 20 9.917C16.6947 9.917 13.6807 10.799 10.958 12.563C8.23599 14.3263 6.15266 16.6943 4.70799 19.667C6.15266 22.639 8.23599 25.007 10.958 26.771C13.6807 28.535 16.6947 29.417 20 29.417Z" fill="#424242"/>
</svg>
