<svg width="40" height="41" viewBox="0 0 40 41" fill="none" xmlns="http://www.w3.org/2000/svg">
<path d="M22.208 20.5C21.5693 20.5 21.0417 20.2917 20.625 19.875C20.2083 19.4583 20 18.9307 20 18.292V8.29201C20 7.68067 20.2153 7.15267 20.646 6.70801C21.0767 6.26401 21.5973 6.04201 22.208 6.04201C22.8193 6.04201 23.3473 6.26401 23.792 6.70801C24.236 7.15267 24.458 7.68067 24.458 8.29201V12.958L33.208 4.20801C33.6247 3.79134 34.1387 3.58301 34.75 3.58301C35.3613 3.58301 35.8753 3.79134 36.292 4.20801C36.7087 4.62467 36.917 5.13867 36.917 5.75001C36.917 6.36134 36.7087 6.87534 36.292 7.29201L27.542 16.042H32.208C32.8193 16.042 33.3473 16.264 33.792 16.708C34.236 17.1527 34.458 17.6807 34.458 18.292C34.458 18.9027 34.236 19.4233 33.792 19.854C33.3473 20.2847 32.8193 20.5 32.208 20.5H22.208ZM3.70801 36.792C3.29134 36.3753 3.08301 35.8613 3.08301 35.25C3.08301 34.6387 3.29134 34.1247 3.70801 33.708L12.5 24.917H7.79201C7.18067 24.917 6.65967 24.7017 6.22901 24.271C5.79834 23.8403 5.58301 23.3193 5.58301 22.708C5.58301 22.0973 5.79834 21.5767 6.22901 21.146C6.65967 20.7153 7.18067 20.5 7.79201 20.5H17.792C18.4307 20.5 18.9583 20.7083 19.375 21.125C19.7917 21.5417 20 22.0693 20 22.708V32.708C20 33.3193 19.7847 33.8403 19.354 34.271C18.9233 34.7017 18.4027 34.917 17.792 34.917C17.1807 34.917 16.6597 34.7017 16.229 34.271C15.7983 33.8403 15.583 33.3193 15.583 32.708V28L6.79201 36.792C6.37534 37.2087 5.86134 37.417 5.25001 37.417C4.63867 37.417 4.12467 37.2087 3.70801 36.792Z" fill="#424242"/>
</svg>
