<svg width="40" height="41" viewBox="0 0 40 41" fill="none" xmlns="http://www.w3.org/2000/svg">
<path d="M9.83299 38.333C8.63899 38.333 7.60433 37.8957 6.72899 37.021C5.85433 36.1457 5.41699 35.111 5.41699 33.917V17.125C5.41699 15.875 5.85433 14.8193 6.72899 13.958C7.60433 13.0973 8.63899 12.667 9.83299 12.667H11.375V9.917C11.375 7.47233 12.2153 5.396 13.896 3.688C15.5767 1.97933 17.6113 1.125 20 1.125C22.3887 1.125 24.4233 1.97933 26.104 3.688C27.7847 5.396 28.625 7.47233 28.625 9.917V12.667H30.167C31.361 12.667 32.4027 13.0973 33.292 13.958C34.1807 14.8193 34.625 15.875 34.625 17.125V33.917C34.625 35.111 34.1807 36.1457 33.292 37.021C32.4027 37.8957 31.361 38.333 30.167 38.333H9.83299ZM15.792 12.667H24.208V9.917C24.208 8.667 23.8053 7.63233 23 6.813C22.1947 5.993 21.1947 5.583 20 5.583C18.8333 5.583 17.8403 5.993 17.021 6.813C16.2017 7.63233 15.792 8.667 15.792 9.917V12.667ZM9.83299 33.917H30.167V17.125H9.83299V33.917ZM20 28.833C20.9167 28.833 21.6873 28.5137 22.312 27.875C22.9373 27.2363 23.25 26.4723 23.25 25.583C23.25 24.7223 22.9373 23.9517 22.312 23.271C21.6873 22.5903 20.9167 22.25 20 22.25C19.0833 22.25 18.3127 22.5903 17.688 23.271C17.0627 23.9517 16.75 24.7223 16.75 25.583C16.75 26.4723 17.0627 27.2363 17.688 27.875C18.3127 28.5137 19.0833 28.833 20 28.833Z" fill="#424242"/>
</svg>
