<svg width="40" height="41" viewBox="0 0 40 41" fill="none" xmlns="http://www.w3.org/2000/svg">
<path d="M31.375 35.25L21.917 25.792C21.0837 26.3753 20.1253 26.8473 19.042 27.208C17.9587 27.5693 16.792 27.75 15.542 27.75C12.264 27.75 9.50699 26.625 7.27099 24.375C5.03499 22.125 3.91699 19.389 3.91699 16.167C3.91699 12.9443 5.03499 10.215 7.27099 7.979C9.50699 5.743 12.236 4.625 15.458 4.625C18.6807 4.625 21.41 5.75 23.646 8C25.882 10.25 27 12.9723 27 16.167C27 17.4723 26.8263 18.646 26.479 19.688C26.1317 20.7293 25.6387 21.6943 25 22.583L34.583 32.167C34.9997 32.5837 35.208 33.0973 35.208 33.708C35.208 34.3193 34.986 34.8473 34.542 35.292C34.1253 35.7087 33.6043 35.917 32.979 35.917C32.3543 35.917 31.8197 35.6947 31.375 35.25ZM15.458 23.333C17.486 23.333 19.1807 22.6457 20.542 21.271C21.9027 19.8957 22.583 18.208 22.583 16.208C22.583 14.1807 21.9027 12.4793 20.542 11.104C19.1807 9.72933 17.486 9.042 15.458 9.042C13.4307 9.042 11.7363 9.72933 10.375 11.104C9.01366 12.4793 8.33299 14.1807 8.33299 16.208C8.33299 18.208 9.01366 19.8957 10.375 21.271C11.7363 22.6457 13.4307 23.333 15.458 23.333ZM12.625 17.583C12.2363 17.583 11.91 17.4373 11.646 17.146C11.382 16.854 11.25 16.5137 11.25 16.125C11.25 15.7363 11.389 15.41 11.667 15.146C11.9443 14.882 12.2777 14.75 12.667 14.75H18.25C18.6387 14.75 18.965 14.889 19.229 15.167C19.493 15.4443 19.625 15.7777 19.625 16.167C19.625 16.5277 19.486 16.854 19.208 17.146C18.9307 17.4373 18.5973 17.583 18.208 17.583H12.625Z" fill="#424242"/>
</svg>
